<mxfile host="Electron" modified="2025-05-26T13:16:56.578Z" agent="Mozilla/5.0 (Windows NT 10.0; Win64; x64) AppleWebKit/537.36 (KHTML, like Gecko) draw.io/24.6.1 Chrome/124.0.6367.207 Electron/30.0.6 Safari/537.36" etag="UhbR6DH3W5jQ-NjKF7tI" version="24.6.1" type="device">
  <diagram name="PÃ¡gina-1" id="tGMEKdCdJoBzLgfKwpCJ">
    <mxGraphModel dx="712" dy="875" grid="1" gridSize="10" guides="1" tooltips="1" connect="1" arrows="1" fold="1" page="1" pageScale="1" pageWidth="827" pageHeight="1169" math="0" shadow="0">
      <root>
        <mxCell id="0" />
        <mxCell id="1" parent="0" />
        <mxCell id="8MxmSigLMM-BVST6uPaN-16" style="edgeStyle=orthogonalEdgeStyle;rounded=0;orthogonalLoop=1;jettySize=auto;html=1;exitX=1;exitY=0.3333333333333333;exitDx=0;exitDy=0;exitPerimeter=0;entryX=0;entryY=0.5;entryDx=0;entryDy=0;" edge="1" parent="1" source="8MxmSigLMM-BVST6uPaN-1" target="8MxmSigLMM-BVST6uPaN-8">
          <mxGeometry relative="1" as="geometry" />
        </mxCell>
        <mxCell id="8MxmSigLMM-BVST6uPaN-17" style="edgeStyle=orthogonalEdgeStyle;rounded=0;orthogonalLoop=1;jettySize=auto;html=1;exitX=1;exitY=0.3333333333333333;exitDx=0;exitDy=0;exitPerimeter=0;entryX=0;entryY=0.5;entryDx=0;entryDy=0;" edge="1" parent="1" source="8MxmSigLMM-BVST6uPaN-1" target="8MxmSigLMM-BVST6uPaN-10">
          <mxGeometry relative="1" as="geometry" />
        </mxCell>
        <mxCell id="8MxmSigLMM-BVST6uPaN-18" style="edgeStyle=orthogonalEdgeStyle;rounded=0;orthogonalLoop=1;jettySize=auto;html=1;exitX=1;exitY=0.3333333333333333;exitDx=0;exitDy=0;exitPerimeter=0;entryX=0;entryY=0.5;entryDx=0;entryDy=0;" edge="1" parent="1" source="8MxmSigLMM-BVST6uPaN-1" target="8MxmSigLMM-BVST6uPaN-11">
          <mxGeometry relative="1" as="geometry" />
        </mxCell>
        <mxCell id="8MxmSigLMM-BVST6uPaN-1" value="Paciente" style="shape=umlActor;verticalLabelPosition=bottom;verticalAlign=top;html=1;outlineConnect=0;" vertex="1" parent="1">
          <mxGeometry x="110" y="200" width="30" height="60" as="geometry" />
        </mxCell>
        <mxCell id="8MxmSigLMM-BVST6uPaN-22" style="edgeStyle=orthogonalEdgeStyle;rounded=0;orthogonalLoop=1;jettySize=auto;html=1;exitX=1;exitY=0.3333333333333333;exitDx=0;exitDy=0;exitPerimeter=0;entryX=0;entryY=0.5;entryDx=0;entryDy=0;" edge="1" parent="1" source="8MxmSigLMM-BVST6uPaN-5" target="8MxmSigLMM-BVST6uPaN-19">
          <mxGeometry relative="1" as="geometry" />
        </mxCell>
        <mxCell id="8MxmSigLMM-BVST6uPaN-23" style="edgeStyle=orthogonalEdgeStyle;rounded=0;orthogonalLoop=1;jettySize=auto;html=1;exitX=1;exitY=0.3333333333333333;exitDx=0;exitDy=0;exitPerimeter=0;entryX=0;entryY=0.5;entryDx=0;entryDy=0;" edge="1" parent="1" source="8MxmSigLMM-BVST6uPaN-5" target="8MxmSigLMM-BVST6uPaN-20">
          <mxGeometry relative="1" as="geometry" />
        </mxCell>
        <mxCell id="8MxmSigLMM-BVST6uPaN-24" style="edgeStyle=orthogonalEdgeStyle;rounded=0;orthogonalLoop=1;jettySize=auto;html=1;exitX=1;exitY=0.3333333333333333;exitDx=0;exitDy=0;exitPerimeter=0;entryX=0;entryY=0.5;entryDx=0;entryDy=0;" edge="1" parent="1" source="8MxmSigLMM-BVST6uPaN-5" target="8MxmSigLMM-BVST6uPaN-21">
          <mxGeometry relative="1" as="geometry" />
        </mxCell>
        <mxCell id="8MxmSigLMM-BVST6uPaN-25" style="edgeStyle=orthogonalEdgeStyle;rounded=0;orthogonalLoop=1;jettySize=auto;html=1;exitX=1;exitY=0.3333333333333333;exitDx=0;exitDy=0;exitPerimeter=0;entryX=0;entryY=0.5;entryDx=0;entryDy=0;" edge="1" parent="1" source="8MxmSigLMM-BVST6uPaN-5" target="8MxmSigLMM-BVST6uPaN-12">
          <mxGeometry relative="1" as="geometry" />
        </mxCell>
        <mxCell id="8MxmSigLMM-BVST6uPaN-5" value="Veterinario" style="shape=umlActor;verticalLabelPosition=bottom;verticalAlign=top;html=1;outlineConnect=0;" vertex="1" parent="1">
          <mxGeometry x="120" y="570" width="30" height="60" as="geometry" />
        </mxCell>
        <mxCell id="8MxmSigLMM-BVST6uPaN-26" style="edgeStyle=orthogonalEdgeStyle;rounded=0;orthogonalLoop=1;jettySize=auto;html=1;exitX=1;exitY=0.3333333333333333;exitDx=0;exitDy=0;exitPerimeter=0;entryX=0;entryY=0.5;entryDx=0;entryDy=0;" edge="1" parent="1" source="8MxmSigLMM-BVST6uPaN-7" target="8MxmSigLMM-BVST6uPaN-13">
          <mxGeometry relative="1" as="geometry" />
        </mxCell>
        <mxCell id="8MxmSigLMM-BVST6uPaN-27" style="edgeStyle=orthogonalEdgeStyle;rounded=0;orthogonalLoop=1;jettySize=auto;html=1;exitX=1;exitY=0.3333333333333333;exitDx=0;exitDy=0;exitPerimeter=0;entryX=0;entryY=0.5;entryDx=0;entryDy=0;" edge="1" parent="1" source="8MxmSigLMM-BVST6uPaN-7" target="8MxmSigLMM-BVST6uPaN-14">
          <mxGeometry relative="1" as="geometry" />
        </mxCell>
        <mxCell id="8MxmSigLMM-BVST6uPaN-28" style="edgeStyle=orthogonalEdgeStyle;rounded=0;orthogonalLoop=1;jettySize=auto;html=1;exitX=1;exitY=0.3333333333333333;exitDx=0;exitDy=0;exitPerimeter=0;entryX=0;entryY=0.5;entryDx=0;entryDy=0;" edge="1" parent="1" source="8MxmSigLMM-BVST6uPaN-7" target="8MxmSigLMM-BVST6uPaN-15">
          <mxGeometry relative="1" as="geometry" />
        </mxCell>
        <mxCell id="8MxmSigLMM-BVST6uPaN-7" value="Administrador&lt;div&gt;&lt;br&gt;&lt;/div&gt;" style="shape=umlActor;verticalLabelPosition=bottom;verticalAlign=top;html=1;outlineConnect=0;" vertex="1" parent="1">
          <mxGeometry x="450" y="150" width="30" height="60" as="geometry" />
        </mxCell>
        <mxCell id="8MxmSigLMM-BVST6uPaN-8" value="Solicitud de Citas" style="ellipse;whiteSpace=wrap;html=1;" vertex="1" parent="1">
          <mxGeometry x="260" y="80" width="120" height="80" as="geometry" />
        </mxCell>
        <mxCell id="8MxmSigLMM-BVST6uPaN-10" value="Consulta del historial clinico" style="ellipse;whiteSpace=wrap;html=1;" vertex="1" parent="1">
          <mxGeometry x="260" y="180" width="120" height="80" as="geometry" />
        </mxCell>
        <mxCell id="8MxmSigLMM-BVST6uPaN-11" value="Comunicacione entre cliente y profesional" style="ellipse;whiteSpace=wrap;html=1;" vertex="1" parent="1">
          <mxGeometry x="260" y="280" width="120" height="80" as="geometry" />
        </mxCell>
        <mxCell id="8MxmSigLMM-BVST6uPaN-12" value="Gestion de recetas electronicas" style="ellipse;whiteSpace=wrap;html=1;" vertex="1" parent="1">
          <mxGeometry x="260" y="690" width="120" height="80" as="geometry" />
        </mxCell>
        <mxCell id="8MxmSigLMM-BVST6uPaN-13" value="Administracion del personal" style="ellipse;whiteSpace=wrap;html=1;" vertex="1" parent="1">
          <mxGeometry x="600" y="20" width="120" height="80" as="geometry" />
        </mxCell>
        <mxCell id="8MxmSigLMM-BVST6uPaN-14" value="Revision de informes" style="ellipse;whiteSpace=wrap;html=1;" vertex="1" parent="1">
          <mxGeometry x="600" y="130" width="120" height="80" as="geometry" />
        </mxCell>
        <mxCell id="8MxmSigLMM-BVST6uPaN-15" value="Gestrionar Facturas" style="ellipse;whiteSpace=wrap;html=1;" vertex="1" parent="1">
          <mxGeometry x="600" y="240" width="120" height="80" as="geometry" />
        </mxCell>
        <mxCell id="8MxmSigLMM-BVST6uPaN-19" value="Comunicacione entre cliente y profesional" style="ellipse;whiteSpace=wrap;html=1;" vertex="1" parent="1">
          <mxGeometry x="260" y="390" width="120" height="80" as="geometry" />
        </mxCell>
        <mxCell id="8MxmSigLMM-BVST6uPaN-20" value="Consulta y Acceso del historial clinico" style="ellipse;whiteSpace=wrap;html=1;" vertex="1" parent="1">
          <mxGeometry x="260" y="490" width="120" height="80" as="geometry" />
        </mxCell>
        <mxCell id="8MxmSigLMM-BVST6uPaN-21" value="Gestionar Citas" style="ellipse;whiteSpace=wrap;html=1;" vertex="1" parent="1">
          <mxGeometry x="260" y="590" width="120" height="80" as="geometry" />
        </mxCell>
      </root>
    </mxGraphModel>
  </diagram>
</mxfile>
